<?xml version="1.0" encoding="UTF-8"?>
<svg width="1155px" height="839px" viewBox="0 0 1155 939" version="1.1" xmlns="http://www.w3.org/2000/svg" xmlns:xlink="http://www.w3.org/1999/xlink">
    <!-- Generator: Sketch 61.2 (89653) - https://sketch.com -->
    <title>main</title>
    <desc>Created with Sketch.</desc>
    <defs>
        <radialGradient cx="50%" cy="0%" fx="50%" fy="0%" r="87.5779614%" gradientTransform="translate(0.500000,0.000000),scale(1.000000,0.774487),rotate(90.000000),translate(-0.500000,-0.000000)" id="radialGradient-1">
            <stop stop-color="#009EC8" offset="0%"></stop>
            <stop stop-color="#00CDE6" stop-opacity="0" offset="100%"></stop>
        </radialGradient>
        <linearGradient x1="0%" y1="35.7658604%" x2="100%" y2="64.2341396%" id="linearGradient-2">
            <stop stop-color="#00B1DB" offset="0%"></stop>
            <stop stop-color="#0D2F76" offset="100%"></stop>
        </linearGradient>
        <linearGradient x1="0%" y1="35.7423731%" x2="100%" y2="64.2576269%" id="linearGradient-3">
            <stop stop-color="#00ABD6" offset="0%"></stop>
            <stop stop-color="#005B98" offset="100%"></stop>
        </linearGradient>
        <linearGradient x1="58.5665259%" y1="-13.0221088%" x2="58.5665259%" y2="122.060354%" id="linearGradient-4">
            <stop stop-color="#000000" stop-opacity="0.815040428" offset="0%"></stop>
            <stop stop-color="#000000" stop-opacity="0.164690778" offset="100%"></stop>
        </linearGradient>
        <linearGradient x1="0%" y1="35.7423731%" x2="100%" y2="64.2576269%" id="linearGradient-5">
            <stop stop-color="#FA8BA7" offset="0%"></stop>
            <stop stop-color="#C2286E" offset="100%"></stop>
        </linearGradient>
    </defs>
    <g id="Page-1" stroke="none" stroke-width="1" fill="none" fill-rule="evenodd">
        <g id="main" transform="translate(2.000000, 0.840252)">
            <rect id="l4" fill="#009EC8" x="226" y="149.159748" width="4" height="50" rx="2"></rect>
            <rect id="l3" fill="#009EC8" transform="translate(919.000000, 276.659748) scale(-1, 1) translate(-919.000000, -276.659748) " x="917" y="186.159748" width="4" height="181" rx="2"></rect>
            <rect id="l2" fill="#009EC8" transform="translate(919.000000, 114.659748) scale(-1, 1) translate(-919.000000, -114.659748) " x="917" y="76.1597477" width="4" height="77" rx="2"></rect>
            <rect id="l1" fill="#009EC8" x="226" y="214.159748" width="4" height="25" rx="2"></rect>
            <rect id="ray" fill="url(#radialGradient-1)" x="372" y="540.159748" width="340" height="439"></rect>
            <path d="M596.757348,604.922597 L726.095202,673.988592 C746.267968,684.760784 751.482696,689.78865 754.913439,695.832949 C758.344182,701.877248 758.344182,708.058618 754.913439,714.102917 C751.482696,720.147216 746.267968,725.175082 726.095202,735.947274 L596.757348,805.013269 C576.584581,815.785461 567.169045,818.570109 555.850064,820.402114 C544.531083,822.23412 532.955413,822.23412 521.636432,820.402114 C510.317451,818.570109 500.901915,815.785461 480.729148,805.013269 L351.391294,735.947274 C331.218528,725.175082 326.003799,720.147216 322.573057,714.102917 C319.142314,708.058618 319.142314,701.877248 322.573057,695.832949 C326.003799,689.78865 331.218528,684.760784 351.391294,673.988592 L480.729148,604.922597 C500.901915,594.150405 510.317451,591.365757 521.636432,589.533752 C532.955413,587.701746 544.531083,587.701746 555.850064,589.533752 C567.169045,591.365757 576.584581,594.150405 596.757348,604.922597 Z" id="r11" stroke="#009EC8" stroke-width="3"></path>
            <path d="M595.757348,535.922597 L725.095202,604.988592 C745.267968,615.760784 750.482696,620.78865 753.913439,626.832949 C757.344182,632.877248 757.344182,639.058618 753.913439,645.102917 C750.482696,651.147216 745.267968,656.175082 725.095202,666.947274 L595.757348,736.013269 C575.584581,746.785461 566.169045,749.570109 554.850064,751.402114 C543.531083,753.23412 531.955413,753.23412 520.636432,751.402114 C509.317451,749.570109 499.901915,746.785461 479.729148,736.013269 L350.391294,666.947274 C330.218528,656.175082 325.003799,651.147216 321.573057,645.102917 C318.142314,639.058618 318.142314,632.877248 321.573057,626.832949 C325.003799,620.78865 330.218528,615.760784 350.391294,604.988592 L479.729148,535.922597 C499.901915,525.150405 509.317451,522.365757 520.636432,520.533752 C531.955413,518.701746 543.531083,518.701746 554.850064,520.533752 C566.169045,522.365757 575.584581,525.150405 595.757348,535.922597 Z" id="r10" stroke="#009EC8" stroke-width="3"></path>
            <path d="M596.757348,467.922597 L726.095202,536.988592 C746.267968,547.760784 751.482696,552.78865 754.913439,558.832949 C758.344182,564.877248 758.344182,571.058618 754.913439,577.102917 C751.482696,583.147216 746.267968,588.175082 726.095202,598.947274 L596.757348,668.013269 C576.584581,678.785461 567.169045,681.570109 555.850064,683.402114 C544.531083,685.23412 532.955413,685.23412 521.636432,683.402114 C510.317451,681.570109 500.901915,678.785461 480.729148,668.013269 L351.391294,598.947274 C331.218528,588.175082 326.003799,583.147216 322.573057,577.102917 C319.142314,571.058618 319.142314,564.877248 322.573057,558.832949 C326.003799,552.78865 331.218528,547.760784 351.391294,536.988592 L480.729148,467.922597 C500.901915,457.150405 510.317451,454.365757 521.636432,452.533752 C532.955413,450.701746 544.531083,450.701746 555.850064,452.533752 C567.169045,454.365757 576.584581,457.150405 596.757348,467.922597 Z" id="r9" stroke="#009EC8" stroke-width="3"></path>
            <path d="M1024.88672,465.631242 L1098.20507,504.655525 C1109.6405,510.742124 1112.5966,513.583014 1114.5414,516.998218 C1116.4862,520.413421 1116.4862,523.906074 1114.5414,527.321278 C1112.5966,530.736482 1109.6405,533.577371 1098.20507,539.663971 L1024.88672,578.688253 C1013.45129,584.774853 1008.11386,586.34826 1001.69742,587.383396 C995.280977,588.418532 988.719023,588.418532 982.30258,587.383396 C975.886137,586.34826 970.548708,584.774853 959.113278,578.688253 L885.794929,539.663971 C874.359499,533.577371 871.403402,530.736482 869.458601,527.321278 C867.5138,523.906074 867.5138,520.413421 869.458601,516.998218 C871.403402,513.583014 874.359499,510.742124 885.794929,504.655525 L959.113278,465.631242 C970.548708,459.544642 975.886137,457.971236 982.30258,456.9361 C988.719023,455.900964 995.280977,455.900964 1001.69742,456.9361 C1008.11386,457.971236 1013.45129,459.544642 1024.88672,465.631242 Z" id="r8" stroke="#009EC8" stroke-width="3"></path>
            <path d="M1025.88672,426.631242 L1099.20507,465.655525 C1110.6405,471.742124 1113.5966,474.583014 1115.5414,477.998218 C1117.4862,481.413421 1117.4862,484.906074 1115.5414,488.321278 C1113.5966,491.736482 1110.6405,494.577371 1099.20507,500.663971 L1025.88672,539.688253 C1014.45129,545.774853 1009.11386,547.34826 1002.69742,548.383396 C996.280977,549.418532 989.719023,549.418532 983.30258,548.383396 C976.886137,547.34826 971.548708,545.774853 960.113278,539.688253 L886.794929,500.663971 C875.359499,494.577371 872.403402,491.736482 870.458601,488.321278 C868.5138,484.906074 868.5138,481.413421 870.458601,477.998218 C872.403402,474.583014 875.359499,471.742124 886.794929,465.655525 L960.113278,426.631242 C971.548708,420.544642 976.886137,418.971236 983.30258,417.9361 C989.719023,416.900964 996.280977,416.900964 1002.69742,417.9361 C1009.11386,418.971236 1014.45129,420.544642 1025.88672,426.631242 Z" id="r7" stroke="#009EC8" stroke-width="3"></path>
            <path d="M193.299869,347.397771 L234.097983,368.979382 C240.461246,372.345456 242.106172,373.916554 243.188359,375.805265 C244.270547,377.693976 244.270547,379.625519 243.188359,381.51423 C242.106172,383.402941 240.461246,384.974039 234.097983,388.340113 L193.299869,409.921724 C186.936606,413.287798 183.966585,414.15794 180.396145,414.730402 C176.825705,415.302863 173.174295,415.302863 169.603855,414.730402 C166.033415,414.15794 163.063394,413.287798 156.700131,409.921724 L115.902017,388.340113 C109.538754,384.974039 107.893828,383.402941 106.811641,381.51423 C105.729453,379.625519 105.729453,377.693976 106.811641,375.805265 C107.893828,373.916554 109.538754,372.345456 115.902017,368.979382 L156.700131,347.397771 C163.063394,344.031697 166.033415,343.161555 169.603855,342.589094 C173.174295,342.016632 176.825705,342.016632 180.396145,342.589094 C183.966585,343.161555 186.936606,344.031697 193.299869,347.397771 Z" id="r6" stroke="#009EC8" stroke-width="3"></path>
            <path d="M193.667262,325.397771 L234.169737,346.979382 C240.48689,350.345456 242.119895,351.916554 243.194241,353.805265 C244.268586,355.693976 244.268586,357.625519 243.194241,359.51423 C242.119895,361.402941 240.48689,362.974039 234.169737,366.340113 L193.667262,387.921724 C187.350109,391.287798 184.40161,392.15794 180.857043,392.730402 C177.312475,393.302863 173.687525,393.302863 170.142957,392.730402 C166.59839,392.15794 163.649891,391.287798 157.332738,387.921724 L116.830263,366.340113 C110.51311,362.974039 108.880105,361.402941 107.805759,359.51423 C106.731414,357.625519 106.731414,355.693976 107.805759,353.805265 C108.880105,351.916554 110.51311,350.345456 116.830263,346.979382 L157.332738,325.397771 C163.649891,322.031697 166.59839,321.161555 170.142957,320.589094 C173.687525,320.016632 177.312475,320.016632 180.857043,320.589094 C184.40161,321.161555 187.350109,322.031697 193.667262,325.397771 Z" id="r5" stroke="#009EC8" stroke-width="3"></path>
            <path d="M164.478015,549.133518 L241.344026,590.227271 C253.332783,596.636644 256.431918,599.628187 258.470822,603.2245 C260.509726,606.820813 260.509726,610.498682 258.470822,614.094995 C256.431918,617.691308 253.332783,620.682851 241.344026,627.092225 L164.478015,668.185977 C152.489258,674.595351 146.893566,676.252196 140.16665,677.342226 C133.439734,678.432255 126.560266,678.432255 119.83335,677.342226 C113.106434,676.252196 107.510742,674.595351 95.5219852,668.185977 L18.6559737,627.092225 C6.66721683,620.682851 3.5680824,617.691308 1.52917817,614.094995 C-0.509726057,610.498682 -0.509726057,606.820813 1.52917817,603.2245 C3.5680824,599.628187 6.66721683,596.636644 18.6559737,590.227271 L95.5219852,549.133518 C107.510742,542.724144 113.106434,541.067299 119.83335,539.97727 C126.560266,538.88724 133.439734,538.88724 140.16665,539.97727 C146.893566,541.067299 152.489258,542.724144 164.478015,549.133518 Z" id="r4" stroke="#009EC8" stroke-width="3"></path>
            <path d="M164.845407,509.133518 L241.41578,550.227271 C253.358426,556.636644 256.445641,559.628187 258.476703,563.2245 C260.507766,566.820813 260.507766,570.498682 258.476703,574.094995 C256.445641,577.691308 253.358426,580.682851 241.41578,587.092225 L164.845407,628.185977 C152.902761,634.595351 147.328591,636.252196 140.627548,637.342226 C133.926504,638.432255 127.073496,638.432255 120.372452,637.342226 C113.671409,636.252196 108.097239,634.595351 96.1545929,628.185977 L19.58422,587.092225 C7.64157369,580.682851 4.55435901,577.691308 2.52329672,574.094995 C0.492234427,570.498682 0.492234427,566.820813 2.52329672,563.2245 C4.55435901,559.628187 7.64157369,556.636644 19.58422,550.227271 L96.1545929,509.133518 C108.097239,502.724144 113.671409,501.067299 120.372452,499.97727 C127.073496,498.88724 133.926504,498.88724 140.627548,499.97727 C147.328591,501.067299 152.902761,502.724144 164.845407,509.133518 Z" id="r3" stroke="#009EC8" stroke-width="3"></path>
            <path d="M116.097736,122.825803 L144.183394,137.898801 C148.563902,140.249729 149.696278,141.347013 150.441262,142.666124 C151.186246,143.985235 151.186246,145.33426 150.441262,146.653371 C149.696278,147.972482 148.563902,149.069766 144.183394,151.420695 L116.097736,166.493693 C111.717229,168.844622 109.672649,169.452345 107.214738,169.852162 C104.756826,170.25198 102.243174,170.25198 99.7852625,169.852162 C97.3273507,169.452345 95.2827711,168.844622 90.9022638,166.493693 L62.8166058,151.420695 C58.4360985,149.069766 57.3037224,147.972482 56.5587382,146.653371 C55.8137539,145.33426 55.8137539,143.985235 56.5587382,142.666124 C57.3037224,141.347013 58.4360985,140.249729 62.8166058,137.898801 L90.9022638,122.825803 C95.2827711,120.474874 97.3273507,119.867151 99.7852625,119.467333 C102.243174,119.067515 104.756826,119.067515 107.214738,119.467333 C109.672649,119.867151 111.717229,120.474874 116.097736,122.825803 Z" id="r2" stroke="#009EC8" stroke-width="3"></path>
            <path d="M1088.17593,237.761092 L1138.73011,264.959835 C1146.61502,269.20201 1148.6533,271.182024 1149.99427,273.562318 C1151.33524,275.942611 1151.33524,278.376884 1149.99427,280.757178 C1148.6533,283.137471 1146.61502,285.117485 1138.73011,289.359661 L1088.17593,316.558403 C1080.29101,320.800579 1076.61077,321.897196 1072.18653,322.618654 C1067.76229,323.340112 1063.23771,323.340112 1058.81347,322.618654 C1054.38923,321.897196 1050.70899,320.800579 1042.82407,316.558403 L992.26989,289.359661 C984.384977,285.117485 982.3467,283.137471 981.005729,280.757178 C979.664757,278.376884 979.664757,275.942611 981.005729,273.562318 C982.3467,271.182024 984.384977,269.20201 992.26989,264.959835 L1042.82407,237.761092 C1050.70899,233.518917 1054.38923,232.4223 1058.81347,231.700842 C1063.23771,230.979383 1067.76229,230.979383 1072.18653,231.700842 C1076.61077,232.4223 1080.29101,233.518917 1088.17593,237.761092 Z" id="r1" stroke="#009EC8" stroke-width="3"></path>
            <g id="db" transform="translate(318.663423, 0.000000)">
                <g id="c3" transform="translate(0.336577, 322.159748)">
                    <path d="M277.093925,102.922597 L372.336577,156.456623 C362.830401,134.101977 384.578151,123.552497 437.579825,124.808185 C438.313781,178.97514 437.537178,208.073384 435.250016,212.102917 C431.819274,218.147216 426.604545,223.175082 406.431779,233.947274 L277.093925,303.013269 C256.921159,313.785461 247.505622,316.570109 236.186641,318.402114 C224.86766,320.23412 213.291991,320.23412 201.973009,318.402114 C190.654028,316.570109 181.238492,313.785461 161.065726,303.013269 L31.7278717,233.947274 C11.5551054,223.175082 6.34037673,218.147216 2.90963417,212.102917 C0.622472455,208.073384 -0.316295851,178.97514 0.0933292466,124.808185 C44.8259169,143.821427 73.9164661,149.737317 87.364977,142.555856 L161.065726,102.922597 C181.238492,92.1504054 190.654028,89.3657572 201.973009,87.5337518 C213.291991,85.7017464 224.86766,85.7017464 236.186641,87.5337518 C247.505622,89.3657572 256.921159,92.1504054 277.093925,102.922597 Z" id="Blue" fill="url(#linearGradient-2)"></path>
                    <path d="M276.850677,22.7628495 L406.188531,91.8288442 C426.361297,102.601036 431.576026,107.628902 435.006768,113.673201 C438.437511,119.7175 438.437511,125.89887 435.006768,131.943169 C431.576026,137.987469 426.361297,143.015335 406.188531,153.787526 L276.850677,222.853521 C256.677911,233.625713 247.262374,236.410361 235.943393,238.242366 C224.624412,240.074372 213.048743,240.074372 201.729761,238.242366 C190.41078,236.410361 180.995244,233.625713 160.822478,222.853521 L31.4846237,153.787526 C11.3118574,143.015335 6.09712874,137.987469 2.66638617,131.943169 C-0.764356395,125.89887 -0.764356395,119.7175 2.66638617,113.673201 C6.09712874,107.628902 11.3118574,102.601036 31.4846237,91.8288442 L160.822478,22.7628495 C180.995244,11.9906577 190.41078,9.20600946 201.729761,7.37400406 C213.048743,5.54199865 224.624412,5.54199865 235.943393,7.37400406 C247.262374,9.20600946 256.677911,11.9906577 276.850677,22.7628495 Z" id="White" fill="#FFFFFF"></path>
                    <path d="M276.850677,16.7628495 L406.188531,85.8288442 C426.361297,96.601036 431.576026,101.628902 435.006768,107.673201 C438.437511,113.7175 438.437511,119.89887 435.006768,125.943169 C431.576026,131.987469 426.361297,137.015335 406.188531,147.787526 L276.850677,216.853521 C256.677911,227.625713 247.262374,230.410361 235.943393,232.242366 C224.624412,234.074372 213.048743,234.074372 201.729761,232.242366 C190.41078,230.410361 180.995244,227.625713 160.822478,216.853521 L31.4846237,147.787526 C11.3118574,137.015335 6.09712874,131.987469 2.66638617,125.943169 C-0.764356395,119.89887 -0.764356395,113.7175 2.66638617,107.673201 C6.09712874,101.628902 11.3118574,96.601036 31.4846237,85.8288442 L160.822478,16.7628495 C180.995244,5.99065768 190.41078,3.20600946 201.729761,1.37400406 C213.048743,-0.458001352 224.624412,-0.458001352 235.943393,1.37400406 C247.262374,3.20600946 256.677911,5.99065768 276.850677,16.7628495 Z" id="Pink" fill="url(#linearGradient-3)"></path>
                    <path d="M281.69825,237.004912 L288.419288,233.7173 C289.467565,233.204532 289.843891,233.134987 290.219982,233.165994 C290.596074,233.197204 290.886356,233.370825 291.077955,233.679258 C291.269555,233.987691 291.365454,234.339679 291.328919,235.457579 L291.094674,242.625007 C291.058139,243.742908 290.935743,244.201675 290.717431,244.710618 C290.499118,245.21956 290.187871,245.68742 289.797493,246.093449 C289.407116,246.499478 289.023181,246.801816 287.974904,247.314584 L281.253867,250.602196 C280.20559,251.114963 279.829263,251.184508 279.453172,251.153501 C279.077081,251.122291 278.786799,250.948671 278.595199,250.640238 C278.4036,250.331805 278.307701,249.979817 278.344236,248.861916 L278.57848,241.694488 C278.615015,240.576588 278.737411,240.11782 278.955724,239.608878 C279.174036,239.099935 279.485283,238.632075 279.875661,238.226047 C280.266039,237.820018 280.649973,237.517679 281.69825,237.004912 Z" id="LW" fill="#FFFFFF"></path>
                    <path d="M302.69825,225.004912 L309.419288,221.7173 C310.467565,221.204532 310.843891,221.134987 311.219982,221.165994 C311.596074,221.197204 311.886356,221.370825 312.077955,221.679258 C312.269555,221.987691 312.365454,222.339679 312.328919,223.457579 L312.094674,230.625007 C312.058139,231.742908 311.935743,232.201675 311.717431,232.710618 C311.499118,233.21956 311.187871,233.68742 310.797493,234.093449 C310.407116,234.499478 310.023181,234.801816 308.974904,235.314584 L302.253867,238.602196 C301.20559,239.114963 300.829263,239.184508 300.453172,239.153501 C300.077081,239.122291 299.786799,238.948671 299.595199,238.640238 C299.4036,238.331805 299.307701,237.979817 299.344236,236.861916 L299.57848,229.694488 C299.615015,228.576588 299.737411,228.11782 299.955724,227.608878 C300.174036,227.099935 300.485283,226.632075 300.875661,226.226047 C301.266039,225.820018 301.649973,225.517679 302.69825,225.004912 Z" id="LW" fill="#FFFFFF"></path>
                    <path d="M323.69825,213.004912 L330.419288,209.7173 C331.467565,209.204532 331.843891,209.134987 332.219982,209.165994 C332.596074,209.197204 332.886356,209.370825 333.077955,209.679258 C333.269555,209.987691 333.365454,210.339679 333.328919,211.457579 L333.094674,218.625007 C333.058139,219.742908 332.935743,220.201675 332.717431,220.710618 C332.499118,221.21956 332.187871,221.68742 331.797493,222.093449 C331.407116,222.499478 331.023181,222.801816 329.974904,223.314584 L323.253867,226.602196 C322.20559,227.114963 321.829263,227.184508 321.453172,227.153501 C321.077081,227.122291 320.786799,226.948671 320.595199,226.640238 C320.4036,226.331805 320.307701,225.979817 320.344236,224.861916 L320.57848,217.694488 C320.615015,216.576588 320.737411,216.11782 320.955724,215.608878 C321.174036,215.099935 321.485283,214.632075 321.875661,214.226047 C322.266039,213.820018 322.649973,213.517679 323.69825,213.004912 Z" id="LW" fill="#FFFFFF"></path>
                    <path d="M323.69825,237.004912 L330.419288,233.7173 C331.467565,233.204532 331.843891,233.134987 332.219982,233.165994 C332.596074,233.197204 332.886356,233.370825 333.077955,233.679258 C333.269555,233.987691 333.365454,234.339679 333.328919,235.457579 L333.094674,242.625007 C333.058139,243.742908 332.935743,244.201675 332.717431,244.710618 C332.499118,245.21956 332.187871,245.68742 331.797493,246.093449 C331.407116,246.499478 331.023181,246.801816 329.974904,247.314584 L323.253867,250.602196 C322.20559,251.114963 321.829263,251.184508 321.453172,251.153501 C321.077081,251.122291 320.786799,250.948671 320.595199,250.640238 C320.4036,250.331805 320.307701,249.979817 320.344236,248.861916 L320.57848,241.694488 C320.615015,240.576588 320.737411,240.11782 320.955724,239.608878 C321.174036,239.099935 321.485283,238.632075 321.875661,238.226047 C322.266039,237.820018 322.649973,237.517679 323.69825,237.004912 Z" id="LW" fill="#FFFFFF"></path>
                    <path d="M362.69825,192.004912 L369.419288,188.7173 C370.467565,188.204532 370.843891,188.134987 371.219982,188.165994 C371.596074,188.197204 371.886356,188.370825 372.077955,188.679258 C372.269555,188.987691 372.365454,189.339679 372.328919,190.457579 L372.094674,197.625007 C372.058139,198.742908 371.935743,199.201675 371.717431,199.710618 C371.499118,200.21956 371.187871,200.68742 370.797493,201.093449 C370.407116,201.499478 370.023181,201.801816 368.974904,202.314584 L362.253867,205.602196 C361.20559,206.114963 360.829263,206.184508 360.453172,206.153501 C360.077081,206.122291 359.786799,205.948671 359.595199,205.640238 C359.4036,205.331805 359.307701,204.979817 359.344236,203.861916 L359.57848,196.694488 C359.615015,195.576588 359.737411,195.11782 359.955724,194.608878 C360.174036,194.099935 360.485283,193.632075 360.875661,193.226047 C361.266039,192.820018 361.649973,192.517679 362.69825,192.004912 Z" id="LW" fill="#FFFFFF"></path>
                    <path d="M257.547156,30.5757994 L348.308178,79.0605144 C362.464133,86.6226533 366.123495,90.1522433 368.530971,94.3953752 C370.938446,98.6385071 370.938446,102.977863 368.530971,107.220995 C366.123495,111.464127 362.464133,114.993717 348.308178,122.555856 L257.547156,171.040571 C243.391201,178.60271 236.783981,180.557549 228.841045,181.843627 C220.898109,183.129705 212.775046,183.129705 204.83211,181.843627 C196.889174,180.557549 190.281953,178.60271 176.125998,171.040571 L85.364977,122.555856 C71.2090217,114.993717 67.5496592,111.464127 65.1421838,107.220995 C62.7347084,102.977863 62.7347084,98.6385071 65.1421838,94.3953752 C67.5496592,90.1522433 71.2090217,86.6226533 85.364977,79.0605144 L176.125998,30.5757994 C190.281953,23.0136605 196.889174,21.0588218 204.83211,19.7727438 C212.775046,18.4866657 220.898109,18.4866657 228.841045,19.7727438 C236.783981,21.0588218 243.391201,23.0136605 257.547156,30.5757994 Z" id="Shade" fill="url(#linearGradient-4)"></path>
                </g>
                <g id="c2" transform="translate(0.336577, 162.159748)">
                    <path d="M277.093925,102.922597 L372.336577,156.456623 C362.830401,134.101977 384.578151,123.552497 437.579825,124.808185 C438.313781,178.97514 437.537178,208.073384 435.250016,212.102917 C431.819274,218.147216 426.604545,223.175082 406.431779,233.947274 L277.093925,303.013269 C256.921159,313.785461 247.505622,316.570109 236.186641,318.402114 C224.86766,320.23412 213.291991,320.23412 201.973009,318.402114 C190.654028,316.570109 181.238492,313.785461 161.065726,303.013269 L31.7278717,233.947274 C11.5551054,223.175082 6.34037673,218.147216 2.90963417,212.102917 C0.622472455,208.073384 -0.316295851,178.97514 0.0933292466,124.808185 C44.8259169,143.821427 73.9164661,149.737317 87.364977,142.555856 L161.065726,102.922597 C181.238492,92.1504054 190.654028,89.3657572 201.973009,87.5337518 C213.291991,85.7017464 224.86766,85.7017464 236.186641,87.5337518 C247.505622,89.3657572 256.921159,92.1504054 277.093925,102.922597 Z" id="Blue" fill="url(#linearGradient-2)"></path>
                    <path d="M276.850677,22.7628495 L406.188531,91.8288442 C426.361297,102.601036 431.576026,107.628902 435.006768,113.673201 C438.437511,119.7175 438.437511,125.89887 435.006768,131.943169 C431.576026,137.987469 426.361297,143.015335 406.188531,153.787526 L276.850677,222.853521 C256.677911,233.625713 247.262374,236.410361 235.943393,238.242366 C224.624412,240.074372 213.048743,240.074372 201.729761,238.242366 C190.41078,236.410361 180.995244,233.625713 160.822478,222.853521 L31.4846237,153.787526 C11.3118574,143.015335 6.09712874,137.987469 2.66638617,131.943169 C-0.764356395,125.89887 -0.764356395,119.7175 2.66638617,113.673201 C6.09712874,107.628902 11.3118574,102.601036 31.4846237,91.8288442 L160.822478,22.7628495 C180.995244,11.9906577 190.41078,9.20600946 201.729761,7.37400406 C213.048743,5.54199865 224.624412,5.54199865 235.943393,7.37400406 C247.262374,9.20600946 256.677911,11.9906577 276.850677,22.7628495 Z" id="White" fill="#FFFFFF"></path>
                    <path d="M276.850677,16.7628495 L406.188531,85.8288442 C426.361297,96.601036 431.576026,101.628902 435.006768,107.673201 C438.437511,113.7175 438.437511,119.89887 435.006768,125.943169 C431.576026,131.987469 426.361297,137.015335 406.188531,147.787526 L276.850677,216.853521 C256.677911,227.625713 247.262374,230.410361 235.943393,232.242366 C224.624412,234.074372 213.048743,234.074372 201.729761,232.242366 C190.41078,230.410361 180.995244,227.625713 160.822478,216.853521 L31.4846237,147.787526 C11.3118574,137.015335 6.09712874,131.987469 2.66638617,125.943169 C-0.764356395,119.89887 -0.764356395,113.7175 2.66638617,107.673201 C6.09712874,101.628902 11.3118574,96.601036 31.4846237,85.8288442 L160.822478,16.7628495 C180.995244,5.99065768 190.41078,3.20600946 201.729761,1.37400406 C213.048743,-0.458001352 224.624412,-0.458001352 235.943393,1.37400406 C247.262374,3.20600946 256.677911,5.99065768 276.850677,16.7628495 Z" id="Pink" fill="url(#linearGradient-3)"></path>
                    <path d="M281.69825,237.004912 L288.419288,233.7173 C289.467565,233.204532 289.843891,233.134987 290.219982,233.165994 C290.596074,233.197204 290.886356,233.370825 291.077955,233.679258 C291.269555,233.987691 291.365454,234.339679 291.328919,235.457579 L291.094674,242.625007 C291.058139,243.742908 290.935743,244.201675 290.717431,244.710618 C290.499118,245.21956 290.187871,245.68742 289.797493,246.093449 C289.407116,246.499478 289.023181,246.801816 287.974904,247.314584 L281.253867,250.602196 C280.20559,251.114963 279.829263,251.184508 279.453172,251.153501 C279.077081,251.122291 278.786799,250.948671 278.595199,250.640238 C278.4036,250.331805 278.307701,249.979817 278.344236,248.861916 L278.57848,241.694488 C278.615015,240.576588 278.737411,240.11782 278.955724,239.608878 C279.174036,239.099935 279.485283,238.632075 279.875661,238.226047 C280.266039,237.820018 280.649973,237.517679 281.69825,237.004912 Z" id="LW" fill="#FFFFFF"></path>
                    <path d="M302.69825,225.004912 L309.419288,221.7173 C310.467565,221.204532 310.843891,221.134987 311.219982,221.165994 C311.596074,221.197204 311.886356,221.370825 312.077955,221.679258 C312.269555,221.987691 312.365454,222.339679 312.328919,223.457579 L312.094674,230.625007 C312.058139,231.742908 311.935743,232.201675 311.717431,232.710618 C311.499118,233.21956 311.187871,233.68742 310.797493,234.093449 C310.407116,234.499478 310.023181,234.801816 308.974904,235.314584 L302.253867,238.602196 C301.20559,239.114963 300.829263,239.184508 300.453172,239.153501 C300.077081,239.122291 299.786799,238.948671 299.595199,238.640238 C299.4036,238.331805 299.307701,237.979817 299.344236,236.861916 L299.57848,229.694488 C299.615015,228.576588 299.737411,228.11782 299.955724,227.608878 C300.174036,227.099935 300.485283,226.632075 300.875661,226.226047 C301.266039,225.820018 301.649973,225.517679 302.69825,225.004912 Z" id="LW" fill="#FFFFFF"></path>
                    <path d="M323.69825,213.004912 L330.419288,209.7173 C331.467565,209.204532 331.843891,209.134987 332.219982,209.165994 C332.596074,209.197204 332.886356,209.370825 333.077955,209.679258 C333.269555,209.987691 333.365454,210.339679 333.328919,211.457579 L333.094674,218.625007 C333.058139,219.742908 332.935743,220.201675 332.717431,220.710618 C332.499118,221.21956 332.187871,221.68742 331.797493,222.093449 C331.407116,222.499478 331.023181,222.801816 329.974904,223.314584 L323.253867,226.602196 C322.20559,227.114963 321.829263,227.184508 321.453172,227.153501 C321.077081,227.122291 320.786799,226.948671 320.595199,226.640238 C320.4036,226.331805 320.307701,225.979817 320.344236,224.861916 L320.57848,217.694488 C320.615015,216.576588 320.737411,216.11782 320.955724,215.608878 C321.174036,215.099935 321.485283,214.632075 321.875661,214.226047 C322.266039,213.820018 322.649973,213.517679 323.69825,213.004912 Z" id="LW" fill="#FFFFFF"></path>
                    <path d="M323.69825,237.004912 L330.419288,233.7173 C331.467565,233.204532 331.843891,233.134987 332.219982,233.165994 C332.596074,233.197204 332.886356,233.370825 333.077955,233.679258 C333.269555,233.987691 333.365454,234.339679 333.328919,235.457579 L333.094674,242.625007 C333.058139,243.742908 332.935743,244.201675 332.717431,244.710618 C332.499118,245.21956 332.187871,245.68742 331.797493,246.093449 C331.407116,246.499478 331.023181,246.801816 329.974904,247.314584 L323.253867,250.602196 C322.20559,251.114963 321.829263,251.184508 321.453172,251.153501 C321.077081,251.122291 320.786799,250.948671 320.595199,250.640238 C320.4036,250.331805 320.307701,249.979817 320.344236,248.861916 L320.57848,241.694488 C320.615015,240.576588 320.737411,240.11782 320.955724,239.608878 C321.174036,239.099935 321.485283,238.632075 321.875661,238.226047 C322.266039,237.820018 322.649973,237.517679 323.69825,237.004912 Z" id="LW" fill="#FFFFFF"></path>
                    <path d="M362.69825,192.004912 L369.419288,188.7173 C370.467565,188.204532 370.843891,188.134987 371.219982,188.165994 C371.596074,188.197204 371.886356,188.370825 372.077955,188.679258 C372.269555,188.987691 372.365454,189.339679 372.328919,190.457579 L372.094674,197.625007 C372.058139,198.742908 371.935743,199.201675 371.717431,199.710618 C371.499118,200.21956 371.187871,200.68742 370.797493,201.093449 C370.407116,201.499478 370.023181,201.801816 368.974904,202.314584 L362.253867,205.602196 C361.20559,206.114963 360.829263,206.184508 360.453172,206.153501 C360.077081,206.122291 359.786799,205.948671 359.595199,205.640238 C359.4036,205.331805 359.307701,204.979817 359.344236,203.861916 L359.57848,196.694488 C359.615015,195.576588 359.737411,195.11782 359.955724,194.608878 C360.174036,194.099935 360.485283,193.632075 360.875661,193.226047 C361.266039,192.820018 361.649973,192.517679 362.69825,192.004912 Z" id="LW" fill="#FFFFFF"></path>
                    <path d="M257.547156,30.5757994 L348.308178,79.0605144 C362.464133,86.6226533 366.123495,90.1522433 368.530971,94.3953752 C370.938446,98.6385071 370.938446,102.977863 368.530971,107.220995 C366.123495,111.464127 362.464133,114.993717 348.308178,122.555856 L257.547156,171.040571 C243.391201,178.60271 236.783981,180.557549 228.841045,181.843627 C220.898109,183.129705 212.775046,183.129705 204.83211,181.843627 C196.889174,180.557549 190.281953,178.60271 176.125998,171.040571 L85.364977,122.555856 C71.2090217,114.993717 67.5496592,111.464127 65.1421838,107.220995 C62.7347084,102.977863 62.7347084,98.6385071 65.1421838,94.3953752 C67.5496592,90.1522433 71.2090217,86.6226533 85.364977,79.0605144 L176.125998,30.5757994 C190.281953,23.0136605 196.889174,21.0588218 204.83211,19.7727438 C212.775046,18.4866657 220.898109,18.4866657 228.841045,19.7727438 C236.783981,21.0588218 243.391201,23.0136605 257.547156,30.5757994 Z" id="Shade" fill="url(#linearGradient-4)"></path>
                </g>
                <g id="c1">
                    <path d="M277.093925,102.922597 L372.336577,156.456623 C362.830401,134.101977 384.578151,123.552497 437.579825,124.808185 C438.313781,178.97514 437.537178,208.073384 435.250016,212.102917 C431.819274,218.147216 426.604545,223.175082 406.431779,233.947274 L277.093925,303.013269 C256.921159,313.785461 247.505622,316.570109 236.186641,318.402114 C224.86766,320.23412 213.291991,320.23412 201.973009,318.402114 C190.654028,316.570109 181.238492,313.785461 161.065726,303.013269 L31.7278717,233.947274 C11.5551054,223.175082 6.34037673,218.147216 2.90963417,212.102917 C0.622472455,208.073384 -0.316295851,178.97514 0.0933292466,124.808185 C44.8259169,143.821427 73.9164661,149.737317 87.364977,142.555856 L161.065726,102.922597 C181.238492,92.1504054 190.654028,89.3657572 201.973009,87.5337518 C213.291991,85.7017464 224.86766,85.7017464 236.186641,87.5337518 C247.505622,89.3657572 256.921159,92.1504054 277.093925,102.922597 Z" id="Blue" fill="url(#linearGradient-2)"></path>
                    <path d="M276.850677,22.7628495 L406.188531,91.8288442 C426.361297,102.601036 431.576026,107.628902 435.006768,113.673201 C438.437511,119.7175 438.437511,125.89887 435.006768,131.943169 C431.576026,137.987469 426.361297,143.015335 406.188531,153.787526 L276.850677,222.853521 C256.677911,233.625713 247.262374,236.410361 235.943393,238.242366 C224.624412,240.074372 213.048743,240.074372 201.729761,238.242366 C190.41078,236.410361 180.995244,233.625713 160.822478,222.853521 L31.4846237,153.787526 C11.3118574,143.015335 6.09712874,137.987469 2.66638617,131.943169 C-0.764356395,125.89887 -0.764356395,119.7175 2.66638617,113.673201 C6.09712874,107.628902 11.3118574,102.601036 31.4846237,91.8288442 L160.822478,22.7628495 C180.995244,11.9906577 190.41078,9.20600946 201.729761,7.37400406 C213.048743,5.54199865 224.624412,5.54199865 235.943393,7.37400406 C247.262374,9.20600946 256.677911,11.9906577 276.850677,22.7628495 Z" id="White" fill="#FFFFFF"></path>
                    <path d="M276.850677,16.7628495 L406.188531,85.8288442 C426.361297,96.601036 431.576026,101.628902 435.006768,107.673201 C438.437511,113.7175 438.437511,119.89887 435.006768,125.943169 C431.576026,131.987469 426.361297,137.015335 406.188531,147.787526 L276.850677,216.853521 C256.677911,227.625713 247.262374,230.410361 235.943393,232.242366 C224.624412,234.074372 213.048743,234.074372 201.729761,232.242366 C190.41078,230.410361 180.995244,227.625713 160.822478,216.853521 L31.4846237,147.787526 C11.3118574,137.015335 6.09712874,131.987469 2.66638617,125.943169 C-0.764356395,119.89887 -0.764356395,113.7175 2.66638617,107.673201 C6.09712874,101.628902 11.3118574,96.601036 31.4846237,85.8288442 L160.822478,16.7628495 C180.995244,5.99065768 190.41078,3.20600946 201.729761,1.37400406 C213.048743,-0.458001352 224.624412,-0.458001352 235.943393,1.37400406 C247.262374,3.20600946 256.677911,5.99065768 276.850677,16.7628495 Z" id="Pink" fill="url(#linearGradient-5)"></path>
                    <path d="M281.69825,237.004912 L288.419288,233.7173 C289.467565,233.204532 289.843891,233.134987 290.219982,233.165994 C290.596074,233.197204 290.886356,233.370825 291.077955,233.679258 C291.269555,233.987691 291.365454,234.339679 291.328919,235.457579 L291.094674,242.625007 C291.058139,243.742908 290.935743,244.201675 290.717431,244.710618 C290.499118,245.21956 290.187871,245.68742 289.797493,246.093449 C289.407116,246.499478 289.023181,246.801816 287.974904,247.314584 L281.253867,250.602196 C280.20559,251.114963 279.829263,251.184508 279.453172,251.153501 C279.077081,251.122291 278.786799,250.948671 278.595199,250.640238 C278.4036,250.331805 278.307701,249.979817 278.344236,248.861916 L278.57848,241.694488 C278.615015,240.576588 278.737411,240.11782 278.955724,239.608878 C279.174036,239.099935 279.485283,238.632075 279.875661,238.226047 C280.266039,237.820018 280.649973,237.517679 281.69825,237.004912 Z" id="LW" fill="#FFFFFF"></path>
                    <path d="M302.69825,225.004912 L309.419288,221.7173 C310.467565,221.204532 310.843891,221.134987 311.219982,221.165994 C311.596074,221.197204 311.886356,221.370825 312.077955,221.679258 C312.269555,221.987691 312.365454,222.339679 312.328919,223.457579 L312.094674,230.625007 C312.058139,231.742908 311.935743,232.201675 311.717431,232.710618 C311.499118,233.21956 311.187871,233.68742 310.797493,234.093449 C310.407116,234.499478 310.023181,234.801816 308.974904,235.314584 L302.253867,238.602196 C301.20559,239.114963 300.829263,239.184508 300.453172,239.153501 C300.077081,239.122291 299.786799,238.948671 299.595199,238.640238 C299.4036,238.331805 299.307701,237.979817 299.344236,236.861916 L299.57848,229.694488 C299.615015,228.576588 299.737411,228.11782 299.955724,227.608878 C300.174036,227.099935 300.485283,226.632075 300.875661,226.226047 C301.266039,225.820018 301.649973,225.517679 302.69825,225.004912 Z" id="LW" fill="#FFFFFF"></path>
                    <path d="M323.69825,213.004912 L330.419288,209.7173 C331.467565,209.204532 331.843891,209.134987 332.219982,209.165994 C332.596074,209.197204 332.886356,209.370825 333.077955,209.679258 C333.269555,209.987691 333.365454,210.339679 333.328919,211.457579 L333.094674,218.625007 C333.058139,219.742908 332.935743,220.201675 332.717431,220.710618 C332.499118,221.21956 332.187871,221.68742 331.797493,222.093449 C331.407116,222.499478 331.023181,222.801816 329.974904,223.314584 L323.253867,226.602196 C322.20559,227.114963 321.829263,227.184508 321.453172,227.153501 C321.077081,227.122291 320.786799,226.948671 320.595199,226.640238 C320.4036,226.331805 320.307701,225.979817 320.344236,224.861916 L320.57848,217.694488 C320.615015,216.576588 320.737411,216.11782 320.955724,215.608878 C321.174036,215.099935 321.485283,214.632075 321.875661,214.226047 C322.266039,213.820018 322.649973,213.517679 323.69825,213.004912 Z" id="LW" fill="#FFFFFF"></path>
                    <path d="M323.69825,237.004912 L330.419288,233.7173 C331.467565,233.204532 331.843891,233.134987 332.219982,233.165994 C332.596074,233.197204 332.886356,233.370825 333.077955,233.679258 C333.269555,233.987691 333.365454,234.339679 333.328919,235.457579 L333.094674,242.625007 C333.058139,243.742908 332.935743,244.201675 332.717431,244.710618 C332.499118,245.21956 332.187871,245.68742 331.797493,246.093449 C331.407116,246.499478 331.023181,246.801816 329.974904,247.314584 L323.253867,250.602196 C322.20559,251.114963 321.829263,251.184508 321.453172,251.153501 C321.077081,251.122291 320.786799,250.948671 320.595199,250.640238 C320.4036,250.331805 320.307701,249.979817 320.344236,248.861916 L320.57848,241.694488 C320.615015,240.576588 320.737411,240.11782 320.955724,239.608878 C321.174036,239.099935 321.485283,238.632075 321.875661,238.226047 C322.266039,237.820018 322.649973,237.517679 323.69825,237.004912 Z" id="LW" fill="#FFFFFF"></path>
                    <path d="M362.69825,192.004912 L369.419288,188.7173 C370.467565,188.204532 370.843891,188.134987 371.219982,188.165994 C371.596074,188.197204 371.886356,188.370825 372.077955,188.679258 C372.269555,188.987691 372.365454,189.339679 372.328919,190.457579 L372.094674,197.625007 C372.058139,198.742908 371.935743,199.201675 371.717431,199.710618 C371.499118,200.21956 371.187871,200.68742 370.797493,201.093449 C370.407116,201.499478 370.023181,201.801816 368.974904,202.314584 L362.253867,205.602196 C361.20559,206.114963 360.829263,206.184508 360.453172,206.153501 C360.077081,206.122291 359.786799,205.948671 359.595199,205.640238 C359.4036,205.331805 359.307701,204.979817 359.344236,203.861916 L359.57848,196.694488 C359.615015,195.576588 359.737411,195.11782 359.955724,194.608878 C360.174036,194.099935 360.485283,193.632075 360.875661,193.226047 C361.266039,192.820018 361.649973,192.517679 362.69825,192.004912 Z" id="LW" fill="#FFFFFF"></path>
                    <path d="M259.547156,42.5757994 L350.308178,91.0605144 C364.464133,98.6226533 368.123495,102.152243 370.530971,106.395375 C372.938446,110.638507 372.938446,114.977863 370.530971,119.220995 C368.123495,123.464127 364.464133,126.993717 350.308178,134.555856 L259.547156,183.040571 C245.391201,190.60271 238.783981,192.557549 230.841045,193.843627 C222.898109,195.129705 214.775046,195.129705 206.83211,193.843627 C198.889174,192.557549 192.281953,190.60271 178.125998,183.040571 L87.364977,134.555856 C73.2090217,126.993717 69.5496592,123.464127 67.1421838,119.220995 C64.7347084,114.977863 64.7347084,110.638507 67.1421838,106.395375 C69.5496592,102.152243 73.2090217,98.6226533 87.364977,91.0605144 L178.125998,42.5757994 C192.281953,35.0136605 198.889174,33.0588218 206.83211,31.7727438 C214.775046,30.4866657 222.898109,30.4866657 230.841045,31.7727438 C238.783981,33.0588218 245.391201,35.0136605 259.547156,42.5757994 Z" id="Shade" stroke-opacity="0.229621941" stroke="#000000" stroke-width="5"></path>
                </g>
            </g>
        </g>
    </g>

	<style>
		#c2 {
			animation: floatC2 6s ease-in-out infinite;
		}

		#c3 {
			animation: floatC3 6s ease-in-out infinite;
		}

		#r9 {
			animation: fd 1.5s ease-in-out infinite;
		}

		#r10 {
			animation: fd 1.5s .25s ease-in-out infinite;
		}

		#r11 {
			animation: fd 1.5s .5s ease-in-out infinite;
		}

		#r1 {
			animation: fdu 4s ease-in-out infinite;
		}

		#r2 {
			animation: fdu 3s .25s ease-in-out infinite;
		}

		#r3 {
			animation: fdu 6s .16s ease-in-out infinite;
		}

		#r4 {
			animation: fdu 6s .48s ease-in-out infinite;
		}

		#r5 {
			animation: fdu 6s 1.32s ease-in-out infinite;
		}

		#r6 {
			animation: fdu 6s 1.48s ease-in-out infinite;
		}

		#r7 {
			animation: fdu 6s ease-in-out infinite;
		}

		#r8 {
			animation: fdu 6s 1s ease-in-out infinite;
		}

		#l1 {
			animation: h 4s 1s ease-in-out infinite;
		}

		#l2 {
			animation: h 3s 1s ease-in-out infinite;
		}

		#l3 {
			animation: h 3s 1s ease-in-out infinite;
		}

		#l4 {
			animation: h 4s 1s ease-in-out infinite;
		}

		@keyframes floatC2 {
			0% {
				transform: translateY(150px);
			}
			50% {
				transform: translateY(170px);
			}
			100% {
				transform: translateY(150px);
			}
		}

		@keyframes floatC3 {
			0% {
				transform: translateY(300px);
			}
			50% {
				transform: translateY(340px);
			}
			100% {
				transform: translateY(300px);
			}
		}

		@keyframes fd {
			0% {
				transform: translateY(0);
				opacity: 1;
			}
			100% {
				transform: translateY(20px);
				opacity: 0;
			}
		}

		@keyframes fdu {
			0% {
				transform: translateY(0);
				opacity: 1;
			}
			50% {
				transform: translateY(20px);
				opacity: 0;
			}
			100% {
				transform: translateY(0px);
				opacity: 1;
			}
		}

		@keyframes h {
			0% {
				transform: scaleY(1);
				opacity: 1;
			}
			100% {
				transform: scaleY(0);
				opacity: 0;
			}
		}

	</style>
</svg>
